<svg width="250" height="250" viewBox="0 0 250 250" fill="none" xmlns="http://www.w3.org/2000/svg">
<path d="M202.987 222.695C231.643 199.789 250 164.538 250 125C250 55.9644 194.036 0 125 0C55.9644 0 0 55.9644 0 125C0 194.036 55.9644 250 125 250C146.064 250 165.912 244.79 183.324 235.588L226.5 249.5L202.987 222.695Z" fill="url(#paint0_linear_2_75)"/>
<path fill-rule="evenodd" clip-rule="evenodd" d="M111.965 138.58C116.162 139.51 120.524 140 125 140C158.137 140 185 113.137 185 80C185 46.8629 158.137 20 125 20C112.015 20 99.9941 24.1246 90.175 31.1351L65 20V223H91V154.385L158.808 222.192L217 243.615L111.965 138.58ZM155 80C155 96.5685 141.569 110 125 110C108.431 110 95 96.5685 95 80C95 63.4315 108.431 50 125 50C141.569 50 155 63.4315 155 80Z" fill="#FAFAFF"/>
<path d="M128 145L200 218.5C242.241 182.697 253.455 132.095 234 75.5L185.5 105.5C171.924 132.112 158.662 144.895 128 145Z" fill="#FAFAFF"/>
<defs>
<linearGradient id="paint0_linear_2_75" x1="125" y1="0" x2="125" y2="250" gradientUnits="userSpaceOnUse">
<stop stop-color="#35528B"/>
<stop offset="0.13" stop-color="#304B7F"/>
<stop offset="0.24" stop-color="#304A7E"/>
<stop offset="1" stop-color="#0E1625"/>
</linearGradient>
</defs>
</svg>
